# xmcd CD database file
#
# Track frame offsets:
#	150
#	14635
#	26497
#	44100
#	65112
#	78160
#	103365
#	114600
#	139620
#	161070
#	174317
#	190330
#
# Disc length: 2799 seconds
#
# Revision: 6
# Processed by: cddbd v1.5.2PL0 Copyright (c) Steve Scherf et al.
# Submitted via: CDex 1.51
#
DISCID=ab0aed0c
DTITLE=John Mayall - Empty Rooms
DYEAR=1969
DGENRE=Blues
TTITLE0=Don´t Waste My Time
TTITLE1=Plan Your Revolution
TTITLE2=Don´t Pick a Flower
TTITLE3=Something New
TTITLE4=People Cling Together
TTITLE5=Waiting For The Right Time
TTITLE6=Thinking Of My Woman
TTITLE7=Counting The Days
TTITLE8=When I Go
TTITLE9=Many Miles Apart
TTITLE10=To A Princess
TTITLE11=Lying In My Bed
EXTD=YEAR: 1969
EXTT0=
EXTT1=
EXTT2=
EXTT3=
EXTT4=
EXTT5=
EXTT6=
EXTT7=
EXTT8=
EXTT9=
EXTT10=
EXTT11=
PLAYORDER=
